<svg width="140" height="123" viewBox="0 0 140 123" fill="none" xmlns="http://www.w3.org/2000/svg">
<path d="M126.875 61.5H105V44C105 34.4297 112.656 26.5 122.5 26.5H124.688C128.242 26.5 131.25 23.7656 131.25 19.9375V6.8125C131.25 3.25781 128.242 0.25 124.688 0.25H122.5C98.1641 0.25 78.75 19.9375 78.75 44V109.625C78.75 117.008 84.4922 122.75 91.875 122.75H126.875C133.984 122.75 140 117.008 140 109.625V74.625C140 67.5156 133.984 61.5 126.875 61.5ZM48.125 61.5H26.25V44C26.25 34.4297 33.9062 26.5 43.75 26.5H45.9375C49.4922 26.5 52.5 23.7656 52.5 19.9375V6.8125C52.5 3.25781 49.4922 0.25 45.9375 0.25H43.75C19.4141 0.25 0 19.9375 0 44V109.625C0 117.008 5.74219 122.75 13.125 122.75H48.125C55.2344 122.75 61.25 117.008 61.25 109.625V74.625C61.25 67.5156 55.2344 61.5 48.125 61.5Z" fill="#FFDDA9"/>
</svg>
