<svg width="38" height="38" viewBox="0 0 38 38" fill="none" xmlns="http://www.w3.org/2000/svg">
<path d="M10.4439 2.59746C13.2691 1.12373 16.4271 0.404724 19.6119 0.510123C22.7967 0.615522 25.9002 1.54175 28.6219 3.19906C31.3435 4.85636 33.5909 7.18856 35.1463 9.96966C36.7017 12.7508 37.5124 15.8865 37.4999 19.073C37.4873 22.2595 36.6519 25.3887 35.0746 28.1574C33.4972 30.9262 31.2315 33.2406 28.4969 34.8764C25.7623 36.5121 22.6515 37.4139 19.466 37.4941C16.2805 37.5744 13.1283 36.8305 10.3148 35.3345" stroke="#12022F"/>
<path d="M12.3334 19.3333V18.6666C12.3334 18.4826 12.4826 18.3333 12.6667 18.3333H23.4467L20.48 15.3733C20.4169 15.3107 20.3814 15.2255 20.3814 15.1366C20.3814 15.0478 20.4169 14.9626 20.48 14.9L20.9534 14.4333C21.016 14.3702 21.1012 14.3347 21.19 14.3347C21.2789 14.3347 21.3641 14.3702 21.4267 14.4333L25.52 18.52C25.6138 18.6137 25.6666 18.7408 25.6667 18.8733V19.1266C25.6652 19.2589 25.6126 19.3855 25.52 19.48L21.4267 23.5667C21.3641 23.6298 21.2789 23.6652 21.19 23.6652C21.1012 23.6652 21.016 23.6298 20.9534 23.5667L20.48 23.0933C20.4173 23.0319 20.382 22.9478 20.382 22.86C20.382 22.7722 20.4173 22.6881 20.48 22.6266L23.4467 19.6666H12.6667C12.4826 19.6666 12.3334 19.5174 12.3334 19.3333Z" fill="#12022F"/>
</svg>
