<svg width="127" height="254" viewBox="0 0 127 254" fill="none" xmlns="http://www.w3.org/2000/svg">
<path fill-rule="evenodd" clip-rule="evenodd" d="M60 118.5L60 135.5C60 135.776 59.7761 136 59.5 136L58.5 136C58.2239 136 58 135.776 58 135.5L58 118.5C58 118.224 58.2239 118 58.5 118L59.5 118C59.7761 118 60 118.224 60 118.5ZM65.5 118L64.5 118C64.2239 118 64 118.224 64 118.5L64 135.5C64 135.776 64.2239 136 64.5 136L65.5 136C65.7761 136 66 135.776 66 135.5L66 118.5C66 118.224 65.7761 118 65.5 118ZM70.5 118L71.5 118C71.7761 118 72 118.224 72 118.5L72 135.5C72 135.776 71.7761 136 71.5 136L70.5 136C70.2239 136 70 135.776 70 135.5L70 118.5C70 118.224 70.2239 118 70.5 118Z" fill="#151517"/>
<circle cx="127" cy="127" r="126.5" stroke="#BFBFBF" stroke-dasharray="2 2"/>
</svg>
